<svg viewBox="0 0 200 200"><path d="M 91.667 60.516 C 90.433 60.823 91.196 67.127 91.196 67.877 L 91.196 138.516 M 62.422 91.058 C 70.919 91.058 79.485 90.667 87.919 91.868 C 99.54 93.521 110.572 96.913 122.014 99.255 C 127.242 100.326 132.088 101.396 137.422 101.396 M 71.856 63.805 C 72.094 65.932 74.391 68.252 75.472 69.966 C 80.433 77.824 85.583 85.561 90.724 93.303 C 97.025 102.792 101.818 112.797 107.496 122.593 C 109.587 126.202 111.108 130.444 113.365 133.818 M 67.61 120.191 C 68.138 116.686 72.316 112.862 74.32 110.115 C 82.024 99.553 89.791 88.557 98.951 79.18 C 103.836 74.18 108.838 68.634 114.307 64.276" stroke-width="10" stroke="rgb(0, 0, 0)" stroke-linecap="round" fill="none" stroke-miterlimit="10"></path></svg>